<svg viewBox="0 0 1165 330" fill="currentColor" xmlns="http://www.w3.org/2000/svg"><g clip-path="url(#clip0)"><path d="M142.24 267.016c9.216 0 14.976-1.44 19.872-3.168v-12.96c-5.184 1.728-11.232 3.168-19.008 3.168-13.824 0-22.464-8.352-22.464-26.496V127.336h39.456v-12.96H120.64V80.104h-15.264v34.272H83.2v12.96h22.176v101.376c0 24.192 12.96 38.304 36.864 38.304zm114.626.288c40.608 0 72.864-31.104 72.864-76.608v-2.304c0-45.792-31.968-76.32-72.576-76.32-40.32 0-72.864 31.392-72.864 76.608v2.304c0 44.352 31.68 76.32 72.576 76.32zm.288-12.96c-32.832 0-57.024-24.768-57.024-63.36v-2.304c0-39.168 24.768-63.648 57.024-63.648 31.968 0 56.736 23.904 56.736 63.648v2.304c0 38.88-24.48 63.36-56.736 63.36zm164.973 12.96c28.224 0 49.248-19.008 57.312-37.152V265h15.264V42.376h-15.264v105.408c-8.64-18.72-25.344-35.712-55.008-35.712-39.744 0-69.984 31.104-69.984 77.472v2.304c0 47.808 29.376 75.456 67.68 75.456zm1.44-12.96c-29.952 0-53.28-21.888-53.28-63.072v-2.304c0-40.608 23.328-63.936 55.584-63.936 31.392 0 53.856 21.888 53.856 63.36v2.304c0 41.472-25.632 63.648-56.16 63.648zm179.799 12.96c40.608 0 72.864-31.104 72.864-76.608v-2.304c0-45.792-31.968-76.32-72.576-76.32-40.32 0-72.864 31.392-72.864 76.608v2.304c0 44.352 31.68 76.32 72.576 76.32zm.288-12.96c-32.832 0-57.024-24.768-57.024-63.36v-2.304c0-39.168 24.768-63.648 57.024-63.648 31.968 0 56.736 23.904 56.736 63.648v2.304c0 38.88-24.48 63.36-56.736 63.36zM749.432 265h19.872l56.736-150.624h-15.552l-50.976 135.36-51.264-135.36h-16.704L749.432 265zm163.564 2.304c32.256 0 56.16-15.552 62.496-44.352h-15.264c-5.184 21.024-22.176 31.392-47.232 31.392-35.712 0-55.008-23.04-55.584-63.36h119.232v-5.472c0-49.824-29.664-73.44-65.952-73.44-40.32 0-69.12 31.392-69.12 76.896v2.304c0 45.216 27.936 76.032 71.424 76.032zM857.988 178.6c2.88-32.832 23.616-53.568 52.704-53.568 29.376 0 48.672 16.992 50.112 53.568H857.988zM1012.27 265h15.27v-83.52c0-40.032 21.88-53.568 50.97-54.72v-14.4c-27.65.864-42.62 15.264-50.97 33.696v-31.68h-15.27V265z"/><path d="M72 232h996" stroke="#F56565" stroke-width="18"/></g><defs><clipPath id="clip0"><path fill="#fff" d="M0 0h1165v330H0z"/></clipPath></defs></svg>